<svg width="1388" height="128" viewBox="0 0 1388 128" fill="none" xmlns="http://www.w3.org/2000/svg">
<g clip-path="url(#clip0_279_7)">
<path d="M49 3.25499L82.805 3.20807C91.5 3.19933 102.362 2.6918 110.618 4.57948C117.546 6.12709 124.019 9.26544 129.525 13.7463C150.26 30.6493 152.416 64.6265 145.896 88.797C143.545 97.512 139.68 103.226 134.042 110.144C116.57 125.683 102.823 124.807 80.596 124.789L49 124.745V3.25499ZM66.245 110.255L86.1595 110.32C98.2255 110.349 113.377 110.37 121.549 99.3725C136.443 80.003 137.147 41.218 117.184 24.8468C104.979 14.8379 81.3705 17.7593 66.245 17.745V110.255Z" fill="white"/>
<path d="M285.755 3.25488H301.141C307.19 10.8244 314.996 23.6736 320.779 31.9656C336.26 54.1659 351.053 77.9314 366.751 99.9024C366.923 67.8154 365.945 35.4987 366 3.25488H381C381.002 14.4124 381.423 123.262 380.478 124.745H366C362.953 120.589 359.955 116.13 357.125 111.819C338.358 83.2319 318.267 55.2429 299.745 26.5154C299.62 58.7664 300.851 92.3284 301.245 124.745H285.755V3.25488Z" fill="white"/>
<path d="M174.755 3.25488H258.5V17.7449H190.245V54.7549H249.745V69.2449H191.499C190.741 69.2474 190.943 69.2604 190.26 69.8069L190.245 110.255H260.745V124.745H174.755V3.25488Z" fill="white"/>
<path d="M622.205 3.25488H641.79C647.605 11.696 653.965 22.9505 659.625 31.805C663.095 37.2361 670.885 49.2511 673.39 54.3004C684.09 39.5179 695.13 17.4103 705.835 3.25488H725.42C721.33 9.82568 716.39 16.8351 712.095 23.3691C707.485 30.3803 702.37 38.5675 697.475 45.3175C694.59 50.5814 685.11 64.0429 681.5 69.5764V124.745H664.755V69.1119C652.05 48.0644 635.745 24.1898 622.205 3.25488Z" fill="white"/>
<path d="M396 3.25488H485.245V17.4999H449V88.2499V124.745H432.255V17.4999H396V3.25488Z" fill="white"/>
<path d="M528.5 3.25488H618V17.4999H581.5V87.7499V124.745H565V17.4999H528.5V3.25488Z" fill="white"/>
<path d="M498.255 29.2549H515.745V124.745H498.255V29.2549Z" fill="white"/>
<path d="M498.255 3.25488H515.745V22.9999H498.255V3.25488Z" fill="white"/>
<path d="M1202 3.25489L1256.56 3.21436C1268.17 3.22932 1277.15 3.8324 1285.78 12.5144C1298.82 25.6295 1297.87 51.1904 1285.1 64.0929C1273.96 75.3539 1258.19 73.3334 1243.75 73.2449H1218V124.745H1202V3.25489ZM1218 58.7549L1244.37 58.8249C1251.45 58.8379 1268.07 59.6919 1272.81 53.1499C1282.81 43.0254 1280.35 20.5484 1264.2 18.1614C1257.41 17.1564 1251.26 17.4178 1244.43 17.4418L1218 17.4999V58.7549Z" fill="white"/>
<path d="M1298.26 3.25488H1387.74V17.4999H1351.24V87.7499V124.745H1335V17.4999H1298.26V3.25488Z" fill="white"/>
<path d="M1111 3.25488H1127.5V110H1186.24V124.745H1111V3.25488Z" fill="white"/>
<path d="M770.015 0H783.08C797.485 2.08136 807.56 4.32298 817.115 16.6544C823.335 24.6896 822.55 28.7329 824.86 37.0019L824.395 37.6292C820.285 37.9478 812.635 38.7474 808.78 38.5064C807.96 37.1142 808.01 34.0268 807.515 32.2214C801.98 11.9848 776.22 9.1079 759.78 16.4662C754.845 18.674 752.275 21.8017 750.48 26.7083C746.035 38.64 756.13 45.1885 765.795 48.5951C784.525 55.1955 813.64 54.2635 823.555 74.536C832.345 92.514 824.38 113.837 806.62 122.218C797.79 126.385 792.54 126.337 783.58 128H773.42C755.56 125.282 740.08 122.116 731.5 104.219C729.82 100.711 725.88 89.3145 727.05 85.9645C730.2 84.964 740.575 83.83 744.015 83.6075C744.77 84.4845 744.36 86.8795 744.605 88.2375C748.82 111.083 767.355 117.042 788.105 114.177C802.64 112.17 814.305 96.5225 807.59 82.5605C801.885 70.6935 778.755 70.144 767.32 66.805C754.835 63.1595 737.19 58.1605 734.175 43.1191C733.755 41.4521 732.585 39.1812 732.51 37.5181C731.425 13.3902 749.025 2.94632 770.015 0Z" fill="white"/>
<path d="M902.42 0H915.08C932.555 2.68025 945.37 6.43045 956.16 21.3972C958.055 24.0259 965.315 34.449 963.57 37.4132C958.3 38.6609 953.005 39.789 947.685 40.7966C946.69 38.6214 946.305 36.6702 945.19 34.4591C940.825 25.8441 933.35 19.2077 924.275 15.8895C904.41 8.50865 880.195 15.9212 871 35.9575C863.925 51.3785 863.275 74.9465 870.495 90.4565C874.965 100.246 883.19 107.823 893.31 111.479C914.355 119.082 938.36 110.37 946.11 88.688C947.235 85.54 948.125 82.226 949.165 79.0315C950.94 78.196 963.665 80.1375 966.71 80.376C963.67 95.696 954.75 109.217 941.865 118.043C931.6 124.949 923.04 126.488 911.08 128H902.42C888.95 125.903 882.23 125.26 870.595 116.849C842.9 97.07 840.235 48.8959 859.325 22.5384C870.335 7.3381 884.77 2.6986 902.42 0Z" fill="white"/>
<path d="M986.755 3.25488H1003.5L1003.47 60.2054C1003.47 66.9424 1003.93 76.3929 1003.48 83.5464C1001.63 112.889 1034.09 122.516 1053.98 106.169C1062.58 99.0969 1062.57 83.9404 1062.53 72.8154L1062.5 3.25488H1079.25L1079.27 60.3124C1079.27 78.9579 1082.18 100.677 1067.6 115.017C1058.41 124.065 1048.91 126.211 1036.58 128H1027.92C1015.54 126.297 1006.59 124.551 997.435 115.078C983.85 101.027 986.715 79.7259 986.735 61.5899L986.755 3.25488Z" fill="white"/>
<path d="M0 29.2549H17.5V124.745H0V29.2549Z" fill="white"/>
<path d="M0 3.25488H17.5V22.9999H0V3.25488Z" fill="white"/>
</g>
<defs>
<clipPath id="clip0_279_7">
<rect width="1388" height="128" fill="white"/>
</clipPath>
</defs>
</svg>
